REM COMMENT lûd cue v1
REM MUSICBRAINZ_ALBUM_ID 2fddaa2c-61eb-46d4-abf2-1ba80c59e487
REM LUD_DURATION_IN_SECONDS 2830.653
TITLE "Mag dat?"
PERFORMER "Lijkenpikkers"
FILE "disc01a.m4a" WAVE
  TRACK 01 AUDIO
    TITLE "Heb je al gehoord"
    PERFORMER "Lijkenpikkers"
    INDEX 01 0:00:00
  TRACK 02 AUDIO
    TITLE "Op je hoeden"
    PERFORMER "Lijkenpikkers"
    INDEX 01 1:59:70
  TRACK 03 AUDIO
    TITLE "Hallisunaties"
    PERFORMER "Lijkenpikkers"
    INDEX 01 7:35:29
  TRACK 04 AUDIO
    TITLE "Eng doen"
    PERFORMER "Lijkenpikkers"
    INDEX 01 12:32:18
  TRACK 05 AUDIO
    TITLE "Het gaat niet over rozen"
    PERFORMER "Lijkenpikkers"
    INDEX 01 16:55:06
  TRACK 06 AUDIO
    TITLE "De slechtste"
    PERFORMER "Lijkenpikkers"
    INDEX 01 21:19:35
FILE "disc01b.m4a" WAVE
  TRACK 07 AUDIO
    TITLE "Klappen"
    PERFORMER "Lijkenpikkers"
    INDEX 01 0:00:00
  TRACK 08 AUDIO
    TITLE "Wijven"
    PERFORMER "Lijkenpikkers"
    INDEX 01 6:07:67
  TRACK 09 AUDIO
    TITLE "Syndroom van touret"
    PERFORMER "Lijkenpikkers"
    INDEX 01 13:02:52
  TRACK 10 AUDIO
    TITLE "Laat me met rust"
    PERFORMER "Lijkenpikkers"
    INDEX 01 15:35:23
  TRACK 11 AUDIO
    TITLE "Het doek valt"
    PERFORMER "Lijkenpikkers"
    INDEX 01 20:00:04
